<?xml version="1.0" encoding="UTF-8" standalone="no"?>
<svg
   xmlns:dc="http://purl.org/dc/elements/1.1/"
   xmlns:cc="http://creativecommons.org/ns#"
   xmlns:rdf="http://www.w3.org/1999/02/22-rdf-syntax-ns#"
   xmlns:svg="http://www.w3.org/2000/svg"
   xmlns="http://www.w3.org/2000/svg"
   xmlns:sodipodi="http://sodipodi.sourceforge.net/DTD/sodipodi-0.dtd"
   xmlns:inkscape="http://www.inkscape.org/namespaces/inkscape"
   sodipodi:docname="GaT-3-DRAFT.svg"
   inkscape:version="1.0 (4035a4fb49, 2020-05-01)"
   id="svg8"
   version="1.1"
   viewBox="0 0 210 297"
   height="297mm"
   width="210mm">
  <defs
     id="defs2" />
  <sodipodi:namedview
     inkscape:window-maximized="1"
     inkscape:window-y="-8"
     inkscape:window-x="-8"
     inkscape:window-height="1057"
     inkscape:window-width="1920"
     showgrid="false"
     inkscape:document-rotation="0"
     inkscape:current-layer="layer1"
     inkscape:document-units="mm"
     inkscape:cy="121.98955"
     inkscape:cx="332.28982"
     inkscape:zoom="5.6"
     inkscape:pageshadow="2"
     inkscape:pageopacity="0.0"
     borderopacity="1.0"
     bordercolor="#666666"
     pagecolor="#ffffff"
     id="base" />
  <metadata
     id="metadata5">
    <rdf:RDF>
      <cc:Work
         rdf:about="">
        <dc:format>image/svg+xml</dc:format>
        <dc:type
           rdf:resource="http://purl.org/dc/dcmitype/StillImage" />
        <dc:title></dc:title>
      </cc:Work>
    </rdf:RDF>
  </metadata>
  <g
     id="layer1"
     inkscape:groupmode="layer"
     inkscape:label="Слой 1">
    <path
       id="path32"
       d="m 100.50138,33.729627 c -0.37426,-2.053055 0.69148,-4.351133 0,-6.425596 -0.658863,-1.976575 -3.453473,-4.776379 -4.913698,-6.236607 -0.757331,-0.757329 -2.243186,-2.249353 -3.02381,-2.834821 -0.607531,-0.455649 -1.774727,-1.05716 -2.456844,-1.511905 C 89.249289,16.148872 89.22463,15.909341 88.406133,15.397781 87.329954,14.725168 86.032413,14.242232 85.004348,13.5079 84.786864,13.352553 84.654871,13.096283 84.437383,12.940936 83.171966,12.037067 81.673993,11.370252 80.279647,10.673079 76.958949,9.0127295 73.357546,7.605338 69.696314,7.082305 67.46168,6.7630717 65.76751,5.8587483 63.648695,7.2712931 c -0.775858,0.5172387 -1.344266,3.1305539 -1.511906,3.9687499 -0.02763,0.138128 -0.125991,0.251985 -0.188989,0.377976 -0.06299,0.251985 -0.152254,0.498824 -0.188986,0.755953 -0.188198,1.31739 -0.159322,2.656827 -0.377976,3.96875 -0.25549,1.532939 0.219871,3.185602 0,4.724702 -0.42264,2.958473 -0.184708,5.41646 -0.377976,8.315475 -0.113202,1.698032 -0.379756,3.574751 -0.188989,5.291667 0.204679,1.8421 0.682635,3.644529 0.944941,5.480656 0.363453,2.544167 1.676111,7.199521 3.77976,8.88244 1.931324,1.545058 6.085015,1.499439 8.315476,0.755952 0.999556,-0.333185 1.858248,-0.956702 2.834823,-1.322917 0.724043,-0.271515 1.533972,-0.322336 2.267857,-0.566965 2.590043,-0.863346 5.316606,-1.618869 7.748511,-2.83482 1.130535,-0.565269 1.970757,-0.577691 3.212798,-1.322916 1.907313,-1.144387 4.19835,-1.725261 6.047618,-2.834823 0.49014,-0.294084 0.99888,-0.998879 1.32292,-1.322917 0.26477,-0.264771 0.91482,-0.506716 1.13393,-0.94494 0.43747,-0.874946 0.88516,-1.392349 1.32291,-2.267855 0.0564,-0.112692 -0.0563,-0.265287 0,-0.377979 0.359733,-0.719444 0.356133,-1.468202 0.755963,-2.267855 z"
       style="fill:none;stroke:#000000;stroke-width:0.25;stroke-linecap:butt;stroke-linejoin:miter;stroke-opacity:1;stroke-miterlimit:4;stroke-dasharray:none" />
    <circle
       r="5.7128859"
       cy="30.3685"
       cx="79.880173"
       id="path34"
       style="fill:none;stroke:#000000;stroke-width:0.25;paint-order:stroke fill markers;stroke-miterlimit:4;stroke-dasharray:none" />
  </g>
</svg>
